<svg xmlns="http://www.w3.org/2000/svg" viewBox="0 0 490 490">
  <path d="M483.8 259.8l-38 16c-.7.3-1.4.7-2.1 1.3l-51.3 43.5-.9-2.2c-5-11.9-18.3-17.9-30.5-13.8l-5.6 1.9-4.1-4.2-19.6-32.6 22.5-102.8 11.6-5.8c7.1-3.6 11.5-11.1 11-19.1-.5-8-5.7-14.9-13.3-17.6l4.8-21.9c.8-4.3-1.9-8.4-6.2-9.3-4.2-.9-8.4 1.7-9.5 5.9l-5.9 26.8-61.7 30.9-23.2-19.9.4-2c1.3-8.1-.2-16.5-4.3-23.7 13.7-.9 26.2-8.3 33.7-19.8 7.5-11.5 9.2-25.9 4.5-38.8l28.2-14.1c4-2 5.6-6.8 3.6-10.8-2-4-6.8-5.6-10.8-3.6L288 38.6c-15.4-18.1-42.4-20.7-61-5.8-18.5 14.9-21.9 41.8-7.6 60.8-2.4.5-4.7 1.2-6.9 2.1l1.1-6c.6-3.4-.1-7-2.2-9.8-2-2.9-5.1-4.8-8.6-5.3L166.1 69c-11-1.7-21.2 5.7-23.1 16.7l-9.3 53-10.2-2.2c-4.4-.9-9-.1-12.8 2.4-3.8 2.5-6.4 6.4-7.3 10.8l-7.7 39.1c-.9 4.5.1 9.2 2.7 12.9 2.6 3.8 6.7 6.3 11.2 7l19.5 3h.1l45.1 6.1-.4 1.3c-3.8 11.2-.9 23.5 7.5 31.8.3.3.6.4.8.7l18.8 53.3-39 59.3-20.1 23.8c-1.6 1.9-2.2 4.4-1.7 6.7.5 2.4 2 4.4 4.2 5.5l38.7 19.7-17.3 10.4L0 451.1 2 467l167.4-21c1.1-.1 2.2-.5 3.1-1.1l106.9-64.6 56.1-20.7 55.6-20.5 5.8-2.1c.9-.3 1.7-.8 2.4-1.4l53.8-45.6 36.9-15.5-6.2-14.7zm-128 63.3l10.4-3.5c4.2-1.4 8.9.7 10.6 4.8l1.1 2.6-39.4 14.5-1.2.4-6.5-15.8 13.1-8.7 3.7 3.7c2.2 2.2 5.4 3 8.2 2zM202 243.9c-4.6-.4-8.7-2.9-11.3-6.8-2.5-3.9-3.1-8.7-1.7-13l1.7-5h49.1l51.9 14.8 23.1 38.4-4.2 19.1-22.9-36.5c-1.3-2.1-3.6-3.5-6.1-3.8l-79.6-7.2zm32.2-40.8h-39.8l3.7-22.5 2.6-.2c13.4-1.2 26.6-4.7 38.9-10.3l.4.3-5.8 32.7zm-33.4-38.9l4.7-28.6c.9 4.2 3.2 7.9 6.4 10.7l14.1 12.1c-8.1 3-16.6 4.9-25.2 5.8zm121.5 183.3l-8.3 3 3.3-15.2 5 12.2zm11.9-42.8l-7.2 4.8-3.6 2.4-.6-1 4-18.5 7.4 12.3zm-14.4-55.1l-16-26.6c-1-1.7-2.7-3-4.7-3.6l-49.1-14 4-22.8 15.2 13.1c6.1 5.3 14.8 6.3 22 2.7l44.6-22.3-16 73.5zm35.4-110c1-.5 2.1-.6 3.1-.2 1 .3 1.8 1.1 2.3 2 1 2 .2 4.4-1.8 5.4l-74.7 37.4c-1.4.7-3.2.5-4.4-.6l-33.5-28.9-23.8-20.5c-1.2-1.1-1.7-2.7-1.2-4.3.5-1.5 1.9-2.6 3.5-2.7h.3c1 0 1.9.3 2.6 1l55.3 47.6 72.3-36.2zM283 67.2c0 12-7.6 22.7-19 26.5-11.4 3.8-23.9 0-31.2-9.6l49-24.5c.7 2.5 1.1 5 1.2 7.6zm-28-28c6.7 0 13.2 2.5 18.2 6.9l-46.1 23c0-.6-.2-1.2-.2-1.9.1-15.5 12.6-28 28.1-28zM230.3 109c7.5 1.2 13.6 6.6 15.7 13.9l-8-6.9c-8.2-7.1-20.5-6.3-27.7 1.7 4.3-6.7 12.2-10.1 20-8.7zm-118.9 82.9l7.7-39.1-7.9-1.5 8.9.9 10.8 2.3-7.1 40.3-11.7-1.8-.7-1.1zm47.4-103.5c.4-2.3 2.6-3.9 5-3.6l33.9 5-6.2 32.7v.2l-13.1 79.5-38.7-5.2 19.1-108.6zm58.7 214.9L202.2 260l28.6 2.6 6.5 42.6-46.6 68.1-11-6.8 37-56.2c1.3-2.1 1.6-4.7.8-7zm-18.4 106.9l-38.5-19.6 9.5-11.2 18.7 11.5c.6.4 1.3.7 2 .9.7.2 1.4.3 2.2.3h.9c7.3 0 13.6 4.9 15.5 11.9l-2.5 1.5-7.8 4.7zm74.1-44.6c-.5.2-.9.4-1.4.7l-48.5 29.3c-3.3-7.6-9.4-13.6-17-16.9l45.9-67.1c1.1-1.7 1.6-3.7 1.3-5.7l-6.4-41.8 29.1 2.6 29.4 47.1-9.5 43.3-22.9 8.5z" fill="#00cf5d"/>
</svg>
