<?xml version="1.0" encoding="utf-8"?>
<!-- Generator: Adobe Illustrator 22.0.0, SVG Export Plug-In . SVG Version: 6.00 Build 0)  -->
<svg version="1.1" id="Layer_1" xmlns="http://www.w3.org/2000/svg" xmlns:xlink="http://www.w3.org/1999/xlink" x="0px" y="0px"
	 viewBox="0 0 461 461" style="enable-background:new 0 0 461 461;" xml:space="preserve">
<style type="text/css">
	.st0{fill:#00CF5D;}
</style>
<path class="st0" d="M8,244.8c16.2,0,23.9,4.8,32.8,10.5c9.6,6.1,20.5,12.9,41.3,12.9s31.7-6.9,41.3-12.9
	c8.9-5.6,16.6-10.5,32.8-10.5s23.9,4.8,32.8,10.5c9.6,6.1,20.5,12.9,41.3,12.9s31.7-6.9,41.3-12.9c8.9-5.6,16.6-10.5,32.8-10.5
	c16.2,0,23.9,4.8,32.8,10.5c9.6,6.1,20.5,12.9,41.3,12.9c20.8,0,31.7-6.9,41.3-12.9c8.9-5.6,16.6-10.5,32.8-10.5c4.4,0,8-3.6,8-8
	s-3.6-8-8-8c-20.9,0-31.7,6.9-41.3,12.9c-8.9,5.6-16.6,10.5-32.8,10.5c-14.5,0-22.1-3.8-29.9-8.6c0.2-0.7,0.3-1.4,0.4-2V123.3
	c0-10.9,8.8-19.8,19.7-19.8c4.4,0,8-3.6,8-8c0-4.4-3.6-8-8-8c-19.7,0-35.7,16-35.7,35.8v10.2h-54.9v-10.2c0.1-11,9-19.8,19.9-19.8
	c4.4,0,8-3.6,8-8c0-4.4-3.6-8-8-8c-19.8,0-35.8,16-35.9,35.8v117c0,0.6,0.2,1.1,0.3,1.7c-8.7,5.5-16.4,10.2-32.3,10.2
	c-16.2,0-23.9-4.8-32.8-10.5c-9.4-5.9-20.1-12.7-40.2-12.9c-5.6-5-10.1-9.2-14.9-13.6c-2.3-2.1-4.7-4.4-7.4-6.9
	c6.1,5.2,13.8,8,21.8,8c3.8,0,7.6-0.6,11.2-1.9c8.6-3,15.6-9.3,19.5-17.4c4-8.1,4.5-17.5,1.4-26c-3.9-11.6-13.8-20.1-25.7-22.4
	c-12-2.3-24.3,2.1-32.2,11.4c-7.9,9.3-10.2,22.1-6,33.6c1.7,4.9,4.5,9.4,8.2,13c-3.4-3.1-7.3-6.6-11.9-10.7
	c-12.3-10.9-24.5-21.9-35.9-32.1c-5.2-4.7-11.2-6.4-17.7-5c-7.2,1.6-14.4,3.1-21.6,4.6c-8.2,1.8-16.7,3.6-25.1,5.4
	C10.5,171.3,3.8,181.8,6,192.4c2,10.4,12,17.3,22.4,15.4c11.2-2.1,22.6-4.5,34-7.3c0.8-0.2,1.7-0.4,2.5-0.4c0.2,0.2,0.4,0.4,0.6,0.7
	c2,2.7,4.1,5.3,6.4,7.8c0.4,0.4,0.6,1,0.5,1.5c-0.1,0.6-0.4,1.1-0.8,1.4l-33.4,23.7c-7.5-3.6-16.7-6.4-30.1-6.4c-4.4,0-8,3.6-8,8
	S3.6,244.8,8,244.8z M333.4,199.5h-54.9v-15h54.9V199.5z M278.4,233.5v-18h54.9v19.1c-7-3.3-16.3-5.7-28.7-5.7
	C295.7,228.7,286.8,230.3,278.4,233.5z M333.4,149.5v19h-54.9v-19H333.4z M140.8,174.7c2.1-4.3,5.8-7.5,10.3-9
	c9.6-3.3,19.4,1.4,22.9,11c1.6,4.4,1.3,9.3-0.8,13.6c-3.1,6.6-9.9,10.6-17.2,10.2c-7.3-0.4-13.6-5.2-15.9-12
	C138.5,183.9,138.8,179,140.8,174.7z M80.8,224.6c4.2-3,6.9-7.6,7.5-12.7c0.6-5.1-1.1-10.2-4.6-14c-1.9-2-3.6-4.1-5.2-6.3
	c-6.9-9.7-16.3-7.4-19.8-6.6c-11.1,2.7-22.3,5.1-33.2,7.1c-1.8,0.2-3.5-0.9-3.8-2.7c-0.3-1-0.1-2.1,0.4-3c0.6-0.9,1.5-1.5,2.5-1.8
	c8.3-1.8,16.8-3.6,25-5.4c7.2-1.5,14.5-3.1,21.7-4.7c1.1-0.2,1.9-0.3,3.6,1.2c11.4,10.3,23.7,21.3,36,32.2
	c9.1,8.1,15.4,13.9,20.9,19c1.6,1.5,3.2,2.9,4.8,4.4c-9,2.5-15.5,6.6-21.5,10.4c-8.9,5.6-16.6,10.5-32.8,10.5
	c-13.9,0-21.5-3.5-29-8.1L80.8,224.6z"/>
<path class="st0" d="M8,297.4c16.2,0,23.9,4.8,32.8,10.5c9.6,6.1,20.5,12.9,41.3,12.9s31.7-6.9,41.3-12.9
	c8.9-5.6,16.6-10.5,32.8-10.5s23.9,4.8,32.8,10.5c9.6,6.1,20.5,12.9,41.3,12.9s31.7-6.9,41.3-12.9c8.9-5.6,16.6-10.5,32.8-10.5
	c16.2,0,23.9,4.8,32.8,10.5c9.6,6.1,20.5,12.9,41.3,12.9c20.8,0,31.7-6.9,41.3-12.9c8.9-5.6,16.6-10.5,32.8-10.5c4.4,0,8-3.6,8-8
	s-3.6-8-8-8c-20.9,0-31.7,6.9-41.3,12.9c-8.9,5.6-16.6,10.5-32.8,10.5s-23.9-4.8-32.8-10.4c-9.6-6.1-20.5-12.9-41.3-12.9
	c-20.8,0-31.7,6.9-41.3,12.9c-8.9,5.6-16.6,10.5-32.8,10.5s-23.9-4.8-32.8-10.5c-9.6-6.1-20.5-12.9-41.3-12.9s-31.7,6.9-41.3,12.9
	c-8.9,5.6-16.6,10.5-32.8,10.5s-23.9-4.8-32.8-10.5c-9.6-6.1-20.5-12.9-41.3-12.9c-4.4,0-8,3.6-8,8C0,293.8,3.6,297.4,8,297.4
	L8,297.4z"/>
<path class="st0" d="M8,349.9c16.2,0,23.9,4.8,32.8,10.5c9.6,6.1,20.5,12.9,41.3,12.9s31.7-6.9,41.3-12.9
	c8.9-5.6,16.6-10.5,32.8-10.5s23.9,4.8,32.8,10.5c9.6,6.1,20.5,12.9,41.3,12.9s31.7-6.9,41.3-12.9c8.9-5.6,16.6-10.5,32.8-10.5
	c16.2,0,23.9,4.8,32.8,10.5c9.6,6.1,20.5,12.9,41.3,12.9c20.8,0,31.7-6.9,41.3-12.9c8.9-5.6,16.6-10.5,32.8-10.5c4.4,0,8-3.6,8-8
	s-3.6-8-8-8c-20.9,0-31.7,6.9-41.3,12.9c-8.9,5.6-16.6,10.5-32.8,10.5s-23.9-4.8-32.8-10.5c-9.6-6.1-20.5-12.9-41.3-12.9
	c-20.8,0-31.7,6.9-41.3,12.9c-8.9,5.6-16.6,10.5-32.8,10.5s-23.9-4.8-32.8-10.5c-9.6-6.1-20.5-12.9-41.3-12.9s-31.7,6.9-41.3,12.9
	c-8.9,5.6-16.6,10.5-32.8,10.5s-23.9-4.8-32.8-10.5C39.7,340.8,28.8,334,8,334c-4.4,0-8,3.6-8,8S3.6,349.9,8,349.9z"/>
</svg>
