<svg version="1.1" id="Layer_1" xmlns="http://www.w3.org/2000/svg" x="0" y="0" viewBox="0 0 461 461" xml:space="preserve">
  <style>
    .st0{fill:#00cf5d}
  </style>
  <path class="st0" d="M8 244.8c16.2 0 23.9 4.8 32.8 10.5 9.6 6.1 20.5 12.9 41.3 12.9s31.7-6.9 41.3-12.9c8.9-5.6 16.6-10.5 32.8-10.5s23.9 4.8 32.8 10.5c9.6 6.1 20.5 12.9 41.3 12.9s31.7-6.9 41.3-12.9c8.9-5.6 16.6-10.5 32.8-10.5 16.2 0 23.9 4.8 32.8 10.5 9.6 6.1 20.5 12.9 41.3 12.9 20.8 0 31.7-6.9 41.3-12.9 8.9-5.6 16.6-10.5 32.8-10.5 4.4 0 8-3.6 8-8s-3.6-8-8-8c-20.9 0-31.7 6.9-41.3 12.9-8.9 5.6-16.6 10.5-32.8 10.5-14.5 0-22.1-3.8-29.9-8.6.2-.7.3-1.4.4-2V123.3c0-10.9 8.8-19.8 19.7-19.8 4.4 0 8-3.6 8-8s-3.6-8-8-8c-19.7 0-35.7 16-35.7 35.8v10.2h-54.9v-10.2c.1-11 9-19.8 19.9-19.8 4.4 0 8-3.6 8-8s-3.6-8-8-8c-19.8 0-35.8 16-35.9 35.8v117c0 .6.2 1.1.3 1.7-8.7 5.5-16.4 10.2-32.3 10.2-16.2 0-23.9-4.8-32.8-10.5-9.4-5.9-20.1-12.7-40.2-12.9-5.6-5-10.1-9.2-14.9-13.6-2.3-2.1-4.7-4.4-7.4-6.9 6.1 5.2 13.8 8 21.8 8 3.8 0 7.6-.6 11.2-1.9 8.6-3 15.6-9.3 19.5-17.4 4-8.1 4.5-17.5 1.4-26-3.9-11.6-13.8-20.1-25.7-22.4-12-2.3-24.3 2.1-32.2 11.4-7.9 9.3-10.2 22.1-6 33.6 1.7 4.9 4.5 9.4 8.2 13-3.4-3.1-7.3-6.6-11.9-10.7-12.3-10.9-24.5-21.9-35.9-32.1-5.2-4.7-11.2-6.4-17.7-5-7.2 1.6-14.4 3.1-21.6 4.6-8.2 1.8-16.7 3.6-25.1 5.4-10.3 2.5-17 13-14.8 23.6 2 10.4 12 17.3 22.4 15.4 11.2-2.1 22.6-4.5 34-7.3.8-.2 1.7-.4 2.5-.4.2.2.4.4.6.7 2 2.7 4.1 5.3 6.4 7.8.4.4.6 1 .5 1.5-.1.6-.4 1.1-.8 1.4l-33.4 23.7c-7.5-3.6-16.7-6.4-30.1-6.4-4.4 0-8 3.6-8 8s3.5 8 7.9 8zm325.4-45.3h-54.9v-15h54.9v15zm-55 34v-18h54.9v19.1c-7-3.3-16.3-5.7-28.7-5.7-8.9-.2-17.8 1.4-26.2 4.6zm55-84v19h-54.9v-19h54.9zm-192.6 25.2c2.1-4.3 5.8-7.5 10.3-9 9.6-3.3 19.4 1.4 22.9 11 1.6 4.4 1.3 9.3-.8 13.6-3.1 6.6-9.9 10.6-17.2 10.2-7.3-.4-13.6-5.2-15.9-12-1.6-4.6-1.3-9.5.7-13.8zm-60 49.9c4.2-3 6.9-7.6 7.5-12.7.6-5.1-1.1-10.2-4.6-14-1.9-2-3.6-4.1-5.2-6.3-6.9-9.7-16.3-7.4-19.8-6.6-11.1 2.7-22.3 5.1-33.2 7.1-1.8.2-3.5-.9-3.8-2.7-.3-1-.1-2.1.4-3 .6-.9 1.5-1.5 2.5-1.8 8.3-1.8 16.8-3.6 25-5.4 7.2-1.5 14.5-3.1 21.7-4.7 1.1-.2 1.9-.3 3.6 1.2 11.4 10.3 23.7 21.3 36 32.2 9.1 8.1 15.4 13.9 20.9 19 1.6 1.5 3.2 2.9 4.8 4.4-9 2.5-15.5 6.6-21.5 10.4-8.9 5.6-16.6 10.5-32.8 10.5-13.9 0-21.5-3.5-29-8.1l27.5-19.5zM8 297.4c16.2 0 23.9 4.8 32.8 10.5 9.6 6.1 20.5 12.9 41.3 12.9s31.7-6.9 41.3-12.9c8.9-5.6 16.6-10.5 32.8-10.5s23.9 4.8 32.8 10.5c9.6 6.1 20.5 12.9 41.3 12.9s31.7-6.9 41.3-12.9c8.9-5.6 16.6-10.5 32.8-10.5 16.2 0 23.9 4.8 32.8 10.5 9.6 6.1 20.5 12.9 41.3 12.9 20.8 0 31.7-6.9 41.3-12.9 8.9-5.6 16.6-10.5 32.8-10.5 4.4 0 8-3.6 8-8s-3.6-8-8-8c-20.9 0-31.7 6.9-41.3 12.9-8.9 5.6-16.6 10.5-32.8 10.5s-23.9-4.8-32.8-10.4c-9.6-6.1-20.5-12.9-41.3-12.9-20.8 0-31.7 6.9-41.3 12.9-8.9 5.6-16.6 10.5-32.8 10.5s-23.9-4.8-32.8-10.5c-9.6-6.1-20.5-12.9-41.3-12.9s-31.7 6.9-41.3 12.9c-8.9 5.6-16.6 10.5-32.8 10.5s-23.9-4.8-32.8-10.5c-9.6-6.1-20.5-12.9-41.3-12.9-4.4 0-8 3.6-8 8 0 4.3 3.6 7.9 8 7.9zM8 349.9c16.2 0 23.9 4.8 32.8 10.5 9.6 6.1 20.5 12.9 41.3 12.9s31.7-6.9 41.3-12.9c8.9-5.6 16.6-10.5 32.8-10.5s23.9 4.8 32.8 10.5c9.6 6.1 20.5 12.9 41.3 12.9s31.7-6.9 41.3-12.9c8.9-5.6 16.6-10.5 32.8-10.5 16.2 0 23.9 4.8 32.8 10.5 9.6 6.1 20.5 12.9 41.3 12.9 20.8 0 31.7-6.9 41.3-12.9 8.9-5.6 16.6-10.5 32.8-10.5 4.4 0 8-3.6 8-8s-3.6-8-8-8c-20.9 0-31.7 6.9-41.3 12.9-8.9 5.6-16.6 10.5-32.8 10.5s-23.9-4.8-32.8-10.5c-9.6-6.1-20.5-12.9-41.3-12.9-20.8 0-31.7 6.9-41.3 12.9-8.9 5.6-16.6 10.5-32.8 10.5s-23.9-4.8-32.8-10.5c-9.6-6.1-20.5-12.9-41.3-12.9s-31.7 6.9-41.3 12.9c-8.9 5.6-16.6 10.5-32.8 10.5s-23.9-4.8-32.8-10.5C39.7 340.8 28.8 334 8 334c-4.4 0-8 3.6-8 8s3.6 7.9 8 7.9z"/>
</svg>
