<svg version="1.1" id="Capa_1" xmlns="http://www.w3.org/2000/svg" x="0" y="0" viewBox="0 0 512 512" xml:space="preserve">
  <style>
    .st0{fill:#00cf5d}
  </style>
  <path class="st0" d="M496.2 176.6C454.8 44.1 313.3-29.9 180.7 11.5 48.2 53-25.8 194.5 15.7 327l16.3-5.1C-6.7 198.4 62.3 66.5 185.8 27.8c59.8-18.7 123.4-13 178.9 16 55.6 29.1 96.5 78 115.2 137.9 18.7 59.8 13 123.4-16 178.9-29.1 55.6-78 96.5-137.9 115.2-100.2 31.3-209.9-8.2-267-96.3l-14.3 9.3c47.2 72.8 128 114.7 211.7 114.7 24.9 0 50.1-3.7 74.7-11.4 64.2-20.1 116.7-64 147.9-123.6 31.2-59.6 37.3-127.7 17.2-191.9z"/>
  <path class="st0" d="M206.5 119.4l4.9-16.3-85.3-25.6c-3-.9-6.3-.1-8.5 2.1l-17.1 17.1c-2 2-2.9 4.8-2.4 7.6s2.4 5.1 4.9 6.2l76.8 34.1 6.9-15.6-65.3-29 4.7-4.7 80.4 24.1z"/>
  <path class="st0" d="M285.7 68.6c0-4.7-3.8-8.5-8.5-8.5-18.8 0-36.4 7.3-49.7 20.6L155.2 153l-29.4-7.4c-2.9-.7-6 .1-8.1 2.2l-17.1 17.1c-1.9 1.9-2.8 4.5-2.4 7.1.3 2.6 1.8 4.9 4.1 6.3l40.8 24.5 24.5 40.8c1.3 2.3 3.7 3.8 6.3 4.1.3 0 .7.1 1 .1 2.2 0 4.4-.9 6-2.5l17.1-17.1c2.1-2.1 3-5.2 2.2-8.1l-7.4-29.4 73.5-72.8c12.6-13.1 19.5-30.4 19.4-49.3zM177.4 181.9c-2.1 2.1-3 5.2-2.3 8.1l7.4 29.4-5.9 5.9-20-33.3c-.7-1.2-1.7-2.2-2.9-2.9l-33.3-20 5.9-5.9 29.4 7.4c2.9.7 6-.1 8.1-2.2l75.7-75.7c7.8-7.9 17.7-12.9 28.4-14.8-1.7 10.5-6.5 20.3-13.9 28l-76.6 76z"/>
  <path class="st0" d="M268.3 220.8l-25.6-86.4-16.4 4.8 24 81.2-5.2 4.6-28.4-66-15.7 6.8 33.1 76.8c1.1 2.5 3.3 4.4 6 4.9.6.1 1.2.2 1.9.2 2.1 0 4.1-.7 5.6-2.1l18.1-15.9c2.6-2.3 3.6-5.7 2.6-8.9zM166.6 470.3c-60.7 28.8-108.4 32.5-130.7 10.2-38.7-38.7 3.3-151 97.7-261.4l-13-11.1C17.1 329.1-22.7 446 23.8 492.5c13 13 31.3 19.5 54.1 19.5 26.5 0 59-8.8 96-26.3l-7.3-15.4zM455.3 294.9c-1.5-2.8-4.4-4.5-7.5-4.5H419l-23.2-46.5c-1.5-2.9-4.4-4.7-7.6-4.7h-85.3c-4.7 0-8.5 3.8-8.5 8.5v68.2c0 4.7 3.8 8.5 8.5 8.5h25.6v93.8c0 4.7 3.8 8.5 8.5 8.5h42.6c2.3 0 4.4-.9 6-2.5l34.1-34.1c1.6-1.6 2.5-3.8 2.5-6v-31.5l32.7-49c1.7-2.6 1.9-6 .4-8.7zm-48.7 50.4c-.9 1.4-1.4 3.1-1.4 4.7v30.6L376 409.8h-30.6V316c0-4.7-3.8-8.5-8.5-8.5h-25.6v-51.2h71.5l23.2 46.5c1.5 2.9 4.4 4.7 7.6 4.7h18.2l-25.2 37.8zM461.3 222.1l-31.7-55.4c-1.5-2.7-4.4-4.3-7.4-4.3H371c-2.8 0-5.5 1.4-7.1 3.8L349.4 188h-21v-42.6H371c2.3 0 4.4-.9 6-2.5l31.6-31.6h39.1V94.2h-42.6c-2.3 0-4.4.9-6 2.5l-31.6 31.6h-47.6c-4.7 0-8.5 3.8-8.5 8.5v59.7c0 4.7 3.8 8.5 8.5 8.5H354c2.8 0 5.5-1.4 7.1-3.8l14.5-21.8h41.7l31.7 55.4c1.5 2.7 4.4 4.3 7.4 4.3h34.1V222l-29.2.1z"/>
  <path class="st0" d="M251.6 307.4H204l-23.1-23.1c-1.6-1.6-3.8-2.5-6-2.5h-42.6c-4.7 0-8.5 3.8-8.5 8.5V350c0 4.7 3.8 8.5 8.5 8.5h34.1v85.3c0 3.2 1.8 6.2 4.7 7.6 1.2.6 2.5.9 3.8.9 1.8 0 3.6-.6 5.1-1.7l34.1-25.6c2.1-1.6 3.4-4.1 3.4-6.8v-21.5l39.4-31.5c2-1.6 3.2-4.1 3.2-6.7v-42.6c.1-4.7-3.8-8.5-8.5-8.5zm-8.5 47.1L203.6 386c-2 1.6-3.2 4.1-3.2 6.7V414l-17.1 12.8V350c0-4.7-3.8-8.5-8.5-8.5h-34.1v-42.6h30.6l23.1 23.1c1.6 1.6 3.8 2.5 6 2.5H243l.1 30zM79.8 183.6L54.2 141c-1.5-2.6-4.3-4.1-7.3-4.1h-8.5V154h3.7l19.7 32.8-20.9 20.9c-1.6 1.6-2.5 3.8-2.5 6v25.6H12.8v17.1h34.1c4.7 0 8.5-3.8 8.5-8.5v-30.6L78.5 194c2.8-2.7 3.3-7 1.3-10.4zM268.7 8.9v10.4L241 26.2c-.9.2-1.9.6-2.7 1.2l-21.5 14.3-46.7-23.4-7.6 15.3 51.2 25.6c1.2.6 2.5.9 3.8.9 1.7 0 3.3-.5 4.7-1.4l24.4-16.2 32.7-8.2c3.8-.9 6.5-4.4 6.5-8.3V8.9h-17.1z"/>
</svg>
