<?xml version="1.0" encoding="utf-8"?>
<!-- Generator: Adobe Illustrator 22.0.0, SVG Export Plug-In . SVG Version: 6.00 Build 0)  -->
<svg version="1.1" id="Layer_1" xmlns="http://www.w3.org/2000/svg" xmlns:xlink="http://www.w3.org/1999/xlink" x="0px" y="0px"
	 viewBox="0 0 470 470" style="enable-background:new 0 0 470 470;" xml:space="preserve">
<style type="text/css">
	.st0{fill:#00CF5D;}
</style>
<g>
	<path class="st0" d="M452.2,32.7h-68.8V7.5c0-4.1-3.4-7.5-7.5-7.5H94.1c-4.1,0-7.5,3.4-7.5,7.5v25.2H17.8C8,32.7,0,40.7,0,50.6
		v329.2c0,9.8,8,17.8,17.8,17.8h163.8V455h-70.7c-4.1,0-7.5,3.4-7.5,7.5s3.4,7.5,7.5,7.5h215c4.1,0,7.5-3.4,7.5-7.5
		s-3.4-7.5-7.5-7.5h-37.5v-57.4h30.9c4.1,0,7.5-3.4,7.5-7.5s-3.4-7.5-7.5-7.5H17.8c-1.5,0-2.8-1.3-2.8-2.8V50.6
		c0-1.5,1.3-2.8,2.8-2.8h68.8v273.9H38.5c-4.1,0-7.5,3.4-7.5,7.5s3.4,7.5,7.5,7.5h280.7c4.1,0,7.5-3.4,7.5-7.5s-3.4-7.5-7.5-7.5
		h-58.9v-61.3c0-4.1-3.4-7.5-7.5-7.5H134.1c-4.1,0-7.5,3.4-7.5,7.5v61.3h-25V40.2c0,0,0-25.2,0-25.2h266.7v68.3
		c0,4.1,3.4,7.5,7.5,7.5s7.5-3.4,7.5-7.5V47.7h68.8c1.5,0,2.8,1.3,2.8,2.8v329.2c0,1.5-1.3,2.8-2.8,2.8h-19.7
		c-4.1,0-7.5,3.4-7.5,7.5s3.4,7.5,7.5,7.5h19.7c9.8,0,17.8-8,17.8-17.8V50.6C470,40.7,462,32.7,452.2,32.7z M273.4,455h-76.7v-57.4
		h76.7V455z M141.6,267.8h103.7v53.8H141.6V267.8z"/>
	<path class="st0" d="M409.9,178.6c0-0.1,0-0.2,0-0.3c0-0.2-0.1-0.3-0.1-0.5c0-0.1,0-0.2-0.1-0.2c0-0.2-0.1-0.3-0.2-0.5
		c0-0.1,0-0.1-0.1-0.2l0-0.1c0,0,0,0,0,0l-26.6-66.2c-1.1-2.8-3.9-4.7-7-4.7s-5.8,1.9-7,4.7l-26.6,66.2c0,0-0.1,0.1-0.1,0.1
		c0,0.1,0,0.1-0.1,0.2c-0.1,0.1-0.1,0.3-0.2,0.5c0,0.1,0,0.2-0.1,0.2c0,0.2-0.1,0.3-0.1,0.5c0,0.1,0,0.2,0,0.3c0,0.1,0,0.3-0.1,0.4
		c0,0.2,0,0.5,0,0.7v256.2c0,18.8,15.3,34.1,34.1,34.1c18.8,0,34.1-15.3,34.1-34.1V179.7c0-0.2,0-0.5,0-0.7
		C410,178.8,409.9,178.7,409.9,178.6L409.9,178.6z M356.7,187.2H395v214.2h-38.3V187.2z M375.9,133.5l15.5,38.7h-31.1L375.9,133.5z
		 M375.9,455c-10.6,0-19.1-8.6-19.1-19.1v-19.5H395v19.5C395,446.4,386.4,455,375.9,455z"/>
	<path class="st0" d="M134.1,107.8h201.7c4.1,0,7.5-3.4,7.5-7.5V47.5c0-4.1-3.4-7.5-7.5-7.5H134.1c-4.1,0-7.5,3.4-7.5,7.5v52.8
		C126.6,104.4,130,107.8,134.1,107.8L134.1,107.8z M141.6,55h186.7v37.8H141.6L141.6,55L141.6,55z"/>
	<path class="st0" d="M335.9,122.8H134.1c-4.1,0-7.5,3.4-7.5,7.5c0,4.1,3.4,7.5,7.5,7.5h201.7c4.1,0,7.5-3.4,7.5-7.5
		S340,122.8,335.9,122.8z"/>
	<path class="st0" d="M252.8,162.8H134.1c-4.1,0-7.5,3.4-7.5,7.5s3.4,7.5,7.5,7.5h118.7c4.1,0,7.5-3.4,7.5-7.5
		S257,162.8,252.8,162.8z"/>
	<path class="st0" d="M320.7,162.8h-37.8c-4.1,0-7.5,3.4-7.5,7.5s3.4,7.5,7.5,7.5h37.8c4.1,0,7.5-3.4,7.5-7.5
		S324.8,162.8,320.7,162.8z"/>
	<path class="st0" d="M252.8,192.8H134.1c-4.1,0-7.5,3.4-7.5,7.5s3.4,7.5,7.5,7.5h118.7c4.1,0,7.5-3.4,7.5-7.5
		S257,192.8,252.8,192.8z"/>
	<path class="st0" d="M319.2,192.8h-36.4c-4.1,0-7.5,3.4-7.5,7.5s3.4,7.5,7.5,7.5h36.4c4.1,0,7.5-3.4,7.5-7.5
		S323.4,192.8,319.2,192.8z"/>
	<path class="st0" d="M252.8,222.8H134.1c-4.1,0-7.5,3.4-7.5,7.5s3.4,7.5,7.5,7.5h118.7c4.1,0,7.5-3.4,7.5-7.5
		S257,222.8,252.8,222.8z"/>
	<path class="st0" d="M319.2,222.8h-36.4c-4.1,0-7.5,3.4-7.5,7.5s3.4,7.5,7.5,7.5h36.4c4.1,0,7.5-3.4,7.5-7.5
		S323.4,222.8,319.2,222.8z"/>
</g>
</svg>
