<svg version="1.1" id="Layer_1" xmlns="http://www.w3.org/2000/svg" x="0" y="0" viewBox="0 0 470 470" xml:space="preserve">
  <style>
    .st0{fill:#00cf5d}
  </style>
  <path class="st0" d="M452.2 32.7h-68.8V7.5c0-4.1-3.4-7.5-7.5-7.5H94.1c-4.1 0-7.5 3.4-7.5 7.5v25.2H17.8C8 32.7 0 40.7 0 50.6v329.2c0 9.8 8 17.8 17.8 17.8h163.8V455h-70.7c-4.1 0-7.5 3.4-7.5 7.5s3.4 7.5 7.5 7.5h215c4.1 0 7.5-3.4 7.5-7.5s-3.4-7.5-7.5-7.5h-37.5v-57.4h30.9c4.1 0 7.5-3.4 7.5-7.5s-3.4-7.5-7.5-7.5H17.8c-1.5 0-2.8-1.3-2.8-2.8V50.6c0-1.5 1.3-2.8 2.8-2.8h68.8v273.9H38.5c-4.1 0-7.5 3.4-7.5 7.5s3.4 7.5 7.5 7.5h280.7c4.1 0 7.5-3.4 7.5-7.5s-3.4-7.5-7.5-7.5h-58.9v-61.3c0-4.1-3.4-7.5-7.5-7.5H134.1c-4.1 0-7.5 3.4-7.5 7.5v61.3h-25V40.2 15h266.7v68.3c0 4.1 3.4 7.5 7.5 7.5s7.5-3.4 7.5-7.5V47.7h68.8c1.5 0 2.8 1.3 2.8 2.8v329.2c0 1.5-1.3 2.8-2.8 2.8h-19.7c-4.1 0-7.5 3.4-7.5 7.5s3.4 7.5 7.5 7.5h19.7c9.8 0 17.8-8 17.8-17.8V50.6c.1-9.9-7.9-17.9-17.7-17.9zM273.4 455h-76.7v-57.4h76.7V455zM141.6 267.8h103.7v53.8H141.6v-53.8z"/>
  <path class="st0" d="M409.9 178.6v-.3c0-.2-.1-.3-.1-.5 0-.1 0-.2-.1-.2 0-.2-.1-.3-.2-.5 0-.1 0-.1-.1-.2v-.1l-26.6-66.2c-1.1-2.8-3.9-4.7-7-4.7s-5.8 1.9-7 4.7l-26.6 66.2-.1.1c0 .1 0 .1-.1.2s-.1.3-.2.5c0 .1 0 .2-.1.2 0 .2-.1.3-.1.5v.3c0 .1 0 .3-.1.4v256.9c0 18.8 15.3 34.1 34.1 34.1s34.1-15.3 34.1-34.1V179.7v-.7c.3-.2.2-.3.2-.4zm-53.2 8.6H395v214.2h-38.3V187.2zm19.2-53.7l15.5 38.7h-31.1l15.6-38.7zm0 321.5c-10.6 0-19.1-8.6-19.1-19.1v-19.5H395v19.5c0 10.5-8.6 19.1-19.1 19.1zM134.1 107.8h201.7c4.1 0 7.5-3.4 7.5-7.5V47.5c0-4.1-3.4-7.5-7.5-7.5H134.1c-4.1 0-7.5 3.4-7.5 7.5v52.8c0 4.1 3.4 7.5 7.5 7.5zm7.5-52.8h186.7v37.8H141.6V55zM335.9 122.8H134.1c-4.1 0-7.5 3.4-7.5 7.5s3.4 7.5 7.5 7.5h201.7c4.1 0 7.5-3.4 7.5-7.5s-3.3-7.5-7.4-7.5zM252.8 162.8H134.1c-4.1 0-7.5 3.4-7.5 7.5s3.4 7.5 7.5 7.5h118.7c4.1 0 7.5-3.4 7.5-7.5s-3.3-7.5-7.5-7.5zM320.7 162.8h-37.8c-4.1 0-7.5 3.4-7.5 7.5s3.4 7.5 7.5 7.5h37.8c4.1 0 7.5-3.4 7.5-7.5s-3.4-7.5-7.5-7.5zM252.8 192.8H134.1c-4.1 0-7.5 3.4-7.5 7.5s3.4 7.5 7.5 7.5h118.7c4.1 0 7.5-3.4 7.5-7.5s-3.3-7.5-7.5-7.5zM319.2 192.8h-36.4c-4.1 0-7.5 3.4-7.5 7.5s3.4 7.5 7.5 7.5h36.4c4.1 0 7.5-3.4 7.5-7.5s-3.3-7.5-7.5-7.5zM252.8 222.8H134.1c-4.1 0-7.5 3.4-7.5 7.5s3.4 7.5 7.5 7.5h118.7c4.1 0 7.5-3.4 7.5-7.5s-3.3-7.5-7.5-7.5zM319.2 222.8h-36.4c-4.1 0-7.5 3.4-7.5 7.5s3.4 7.5 7.5 7.5h36.4c4.1 0 7.5-3.4 7.5-7.5s-3.3-7.5-7.5-7.5z"/>
</svg>
